<?xml version="1.0" encoding="utf-8"?>
<!-- Generator: Adobe Illustrator 22.1.0, SVG Export Plug-In . SVG Version: 6.00 Build 0)  -->
<svg version="1.1" id="Layer_1" xmlns="http://www.w3.org/2000/svg" xmlns:xlink="http://www.w3.org/1999/xlink" x="0px" y="0px"
	 viewBox="0 0 491.7 123.1" style="enable-background:new 0 0 491.7 123.1;" xml:space="preserve">
<g>
	<path d="M103.3,81.3c0,1.4-0.5,2.3-1.4,2.8c-1,0.5-2.1,0.7-3.5,0.7c-1.4,0-2.5-0.5-3.4-1.4s-1.6-2.5-2.2-4.6
		c-0.5-2.1-0.9-4.9-1.2-8.3c-0.2-3.4-0.4-7.6-0.4-12.5c0-0.2-0.1-0.3-0.2-0.4c0,0-0.2,0.5-0.5,1.5c-0.3,1-0.6,2.2-0.9,3.6
		c-0.4,1.4-0.7,3.1-1.2,4.9c-0.4,1.8-0.8,3.5-1.1,5.2c-0.3,1.7-0.6,3.3-0.8,4.8c-0.2,1.5-0.4,2.7-0.4,3.5c0,0.4,0.1,0.7,0.2,0.8
		c0.2,0.2,0.2,0.3,0.2,0.4c0,0.2-0.1,0.4-0.4,0.6c-0.3,0.2-0.6,0.4-0.9,0.5c-0.4,0.1-0.7,0.2-1,0.3c-0.3,0.1-0.5,0.1-0.7,0.1
		c-0.4,0-0.9-0.1-1.4-0.2c-0.6-0.1-1.2-0.4-1.8-0.7c-0.6-0.3-1.1-0.7-1.7-1.2c-0.5-0.5-0.9-1-1.2-1.8c-0.2-0.5-0.3-1.3-0.5-2.5
		c-0.1-1.1-0.2-2.4-0.2-3.7c0-1.4-0.1-2.8-0.1-4.3c0-1.5,0-2.9,0-4.1c0-1.5,0-2.9-0.1-4.1c0-1.2-0.2-1.8-0.4-1.8
		c-0.1,0-0.2,0.2-0.4,0.7c-0.2,0.4-0.4,0.9-0.6,1.5c-0.2,0.6-0.4,1.1-0.6,1.6c-0.2,0.5-0.3,0.9-0.3,1.2c-1,3.8-1.6,7.2-2,10
		c-0.3,2.8-0.5,5.4-0.5,7.8c0,0.5,0,0.8,0,1c0,0.2,0.1,0.3,0.1,0.4c0,0.1,0.1,0.1,0.1,0.2c0,0,0.1,0.2,0.1,0.4
		c-0.4,0.2-1,0.4-1.8,0.5c-0.8,0.1-1.6,0.1-2.4,0.1c-0.1,0-0.4,0-0.9-0.1c-0.5-0.1-1-0.2-1.5-0.4c-0.5-0.2-1-0.4-1.5-0.7
		c-0.4-0.3-0.7-0.6-0.7-1c0-0.4,0-1.1,0-2.2c0-1.1,0-2.3,0.1-3.8c0-1.5,0-3.1,0.1-4.8c0-1.8,0-3.5,0.1-5.3c0-1.8,0-3.5,0.1-5.1
		c0-1.7,0-3.1,0-4.3c0-0.4,0-0.9,0-1.7c0-0.8-0.1-1.7-0.2-2.7c-0.1-1-0.2-2-0.5-3.1c-0.2-1.1-0.5-2-0.8-2.9
		c-0.4-0.9-0.8-1.6-1.3-2.1c-0.5-0.6-1.2-0.8-2-0.8c-1.5,0-2.9,0.6-4.1,1.8c-1.2,1.2-2.1,2.6-2.9,4.3c-0.7,1.7-1.3,3.5-1.7,5.4
		c-0.4,1.9-0.6,3.5-0.6,4.8c0,0.4,0,1.1,0.1,2c0.1,0.9,0.2,1.8,0.5,2.6c0.3,0.9,0.7,1.6,1.2,2.3c0.5,0.7,1.2,1,2.1,1
		c0.1,0,0.4,0,0.8-0.1c0.5,0,0.8-0.1,0.9-0.1c0.1,0,0.4,0,0.7,0.1c0.3,0,0.6,0.1,0.9,0.2c0.3,0.1,0.6,0.2,0.9,0.5
		c0.3,0.2,0.4,0.5,0.4,0.9c0,0.4-0.1,0.8-0.4,1c-0.3,0.3-0.6,0.5-1,0.6c-0.4,0.1-0.8,0.2-1.1,0.3c-0.3,0-0.6,0.1-0.7,0.1
		c-1.9,0-3.4-0.5-4.5-1.4c-1.1-0.9-2-2.1-2.6-3.4c-0.6-1.3-1-2.7-1.2-4.1c-0.2-1.4-0.3-2.6-0.3-3.7c0-1.7,0.2-3.7,0.7-6
		c0.5-2.2,1.3-4.4,2.5-6.3c1.1-2,2.6-3.7,4.4-5c1.8-1.4,4.1-2.1,6.7-2.1c0.8,0,1.5,0.2,2.2,0.6c0.7,0.4,1.3,0.9,1.9,1.5
		c0.6,0.6,1,1.3,1.4,2.1c0.4,0.7,0.7,1.4,0.9,2.1c0.5,1.4,0.9,3.2,1.2,5.4c0.3,2.1,0.4,4.3,0.6,6.6c0.1,2.3,0.2,4.6,0.2,7
		c0,2.3,0.1,4.5,0.1,6.4c0.2-1.2,0.5-2.3,0.7-3.3c0.3-1,0.5-2.1,0.8-3.1c0.3-1.1,0.6-2.2,0.9-3.4c0.3-1.2,0.6-2.6,1-4.1
		c0.4-1.7,0.8-3.5,1.3-5.4c0.5-1.9,1-3.6,1.5-5.2c0.1-0.4,0.4-0.7,1-0.8c0.6-0.1,1-0.1,1.2-0.1c0.4,0,0.9,0.1,1.4,0.4
		c0.6,0.3,1.1,0.6,1.7,0.9c0.5,0.4,1,0.8,1.4,1.3c0.4,0.5,0.6,1,0.6,1.4v12c0,0.9,0,2,0,3.3c0,1.3,0,2.6,0.1,3.7
		c0,1.2,0.1,2.2,0.1,3c0.1,0.8,0.2,1.3,0.2,1.3c0.3,0,0.6-0.8,1-2.5c0.4-1.7,0.9-3.7,1.4-6.2c0.5-2.5,1.1-5.1,1.7-8
		c0.6-2.9,1.3-5.5,2-8c0.7-2.5,1.4-4.5,2.2-6.2c0.8-1.7,1.6-2.5,2.4-2.5c0.5,0,1.1,0.3,1.7,0.9c0.6,0.6,1.2,1.3,1.7,2.1
		c0.5,0.8,0.9,1.5,1.3,2.3c0.3,0.8,0.5,1.3,0.5,1.6c0,0.2-0.1,0.7-0.4,1.4c-0.2,0.8-0.5,2-0.7,3.8c-0.3,1.8-0.5,4.2-0.7,7.2
		c-0.2,3-0.4,6.8-0.4,11.4c0,0.9,0.1,2.1,0.2,3.4c0.2,1.3,0.4,2.6,0.7,3.7c0.3,1.2,0.8,2.2,1.3,3c0.5,0.8,1.2,1.3,1.9,1.3
		c0.4,0,0.7-0.1,1-0.2c0.3-0.2,0.6-0.5,0.8-1C103.2,80.9,103.3,81.1,103.3,81.3z"/>
	<path d="M131.1,76c-0.1,0.7-0.3,1.4-0.7,2.3c-0.4,0.9-0.9,1.7-1.4,2.6c-0.6,0.8-1.3,1.5-2,2.1c-0.8,0.6-1.6,0.8-2.6,0.8
		c-1.4,0-2.6-0.5-3.7-1.6c-1-1.1-1.7-2.6-1.9-4.5c-0.3,0.7-0.6,1.6-1,2.6c-0.4,1-0.8,1.9-1.4,2.7c-0.6,0.8-1.2,1.6-1.9,2.1
		c-0.7,0.6-1.6,0.9-2.6,0.9c-0.3,0-0.5,0-0.6-0.1c-0.1,0-0.3-0.1-0.5-0.2c-0.2-0.1-0.4-0.1-0.6-0.2c-0.2,0-0.5-0.1-0.9-0.1
		c-1.1,0-2.1-0.4-2.8-1.1c-0.8-0.7-1.4-1.6-1.9-2.8c-0.5-1.1-0.8-2.3-1-3.7s-0.3-2.6-0.3-3.7c0-2.8,0.2-5.5,0.5-8
		c0.3-2.5,0.8-4.7,1.5-6.7c0.7-1.9,1.6-3.5,2.7-4.6c1.1-1.1,2.5-1.7,4.1-1.7c0.9,0,1.6,0.1,2.1,0.2c0.5,0.2,0.9,0.4,1.4,0.6
		s0.9,0.4,1.4,0.7c0.5,0.2,1.2,0.4,2.1,0.6c1,0.6,1.7,1.2,2.1,2c0.4,0.8,0.7,1.6,0.8,2.5c0.1,0.9,0.2,1.8,0.1,2.8c0,1,0,1.9,0.1,2.8
		c0,0,0.1,0.1,0.3,0.2c0.2,0.1,0.5,0.2,0.7,0.3c0.3,0.1,0.5,0.3,0.7,0.5s0.3,0.5,0.3,0.8v0.3c-0.5,1.2-0.7,2.3-0.8,3.2
		c-0.1,0.9-0.1,2.1-0.1,3.4c0,0.7,0,1.4,0.1,2.1s0.2,1.5,0.4,2.2c0.2,0.7,0.4,1.2,0.7,1.7c0.3,0.4,0.7,0.7,1.3,0.7
		c0.6,0,1.1-0.3,1.5-0.8c0.4-0.6,0.8-1.2,1.1-1.9c0.3-0.7,0.6-1.5,0.8-2.2c0.2-0.7,0.3-1.3,0.4-1.7c0.1-0.6,0.3-0.8,0.7-0.8
		c0.2,0,0.5,0.1,0.7,0.4c0.2,0.3,0.3,0.7,0.3,1.4c0,0.2,0,0.4,0,0.5C131.2,75.5,131.2,75.7,131.1,76z M118.2,64.6
		c0-0.5,0-1.1-0.1-1.8c-0.1-0.7-0.3-1.4-0.5-2c-0.2-0.6-0.6-1.1-1-1.5c-0.5-0.4-1.1-0.6-1.9-0.6c-1.3,0-2.4,0.6-3.2,1.8
		c-0.8,1.2-1.5,2.6-1.9,4.2c-0.5,1.6-0.8,3.3-0.9,5c-0.1,1.7-0.2,3-0.2,4c0,0.7,0,1.6,0.1,2.7c0.1,1.1,0.2,2,0.4,3
		c0.2,0.9,0.5,1.7,0.8,2.4c0.4,0.7,0.8,1,1.4,1c1.4,0,2.4-0.5,3.1-1.6c0.7-1.1,1.3-2.4,1.6-3.9c0.4-1.6,0.6-3.2,0.8-5
		c0.2-1.8,0.3-3.4,0.5-4.9c0.1-0.8,0.3-1.3,0.6-1.5c0.3-0.2,0.5-0.4,0.5-0.5V64.6z"/>
	<path d="M153,67.6c0,0.4-0.1,1.1-0.2,2.3c-0.1,1.1-0.3,2.5-0.6,4.1c-0.2,0.9-0.4,1.9-0.7,3.1c-0.3,1.2-0.7,2.3-1.2,3.3
		c-0.5,1-1.2,1.9-1.9,2.6c-0.8,0.7-1.7,1.1-2.8,1.1c-1.1,0-2-0.2-2.8-0.6c-0.7-0.4-1.3-1-1.8-1.6c-0.4-0.7-0.8-1.4-1.1-2.1
		c-0.3-0.7-0.6-1.4-0.9-2.1c-0.3-0.7-0.7-1.2-1.2-1.6c-0.5-0.4-1.1-0.6-1.9-0.6H135v4.2c0,0.7,0.1,1.6,0.2,2.6
		c0.1,1,0.3,1.9,0.5,2.7c-0.2,0.1-0.6,0.2-1.2,0.2c-0.6,0.1-1,0.1-1.2,0.1c-1.4,0-2.3-0.1-2.8-0.4c-0.4-0.3-0.7-1.1-0.7-2.4V40.1
		c0-0.7-0.1-1.2-0.2-1.6c-0.1-0.4-0.2-0.7-0.2-0.9c0-0.3,0.2-0.6,0.7-0.8c0.4-0.2,1.3-0.4,2.6-0.4c0.8,0,1.5,0.1,2.1,0.2
		c0.6,0.1,1.1,0.3,1.4,0.5c0.5,0.2,0.9,0.4,1.1,0.7c-0.3,1.2-0.5,2.7-0.7,4.7s-0.4,4.1-0.5,6.3c-0.1,2.3-0.2,4.5-0.3,6.8
		c-0.1,2.3-0.1,4.3-0.1,6.1c0.2-0.4,0.5-1.1,0.9-2c0.4-0.9,0.9-1.9,1.4-2.8c0.6-0.9,1.2-1.7,2-2.4c0.7-0.7,1.6-1,2.5-1
		c1.1,0,1.9,0.3,2.5,0.9c0.6,0.6,1,1.4,1.3,2.2c0.3,0.9,0.4,1.8,0.5,2.7c0,0.9,0.1,1.7,0.1,2.3c0,0.9-0.2,2-0.6,3.1
		c-0.4,1.2-0.9,2.3-1.6,3.4c-0.7,1.1-1.5,2.1-2.4,3.1c-0.9,0.9-1.9,1.6-3,2.1c0.7,0.2,1.5,0.6,2.1,1.1c0.7,0.5,1.3,1.2,1.8,2.2
		c0.2,0.4,0.4,0.8,0.6,1.3c0.1,0.5,0.3,0.9,0.5,1.3c0.2,0.4,0.4,0.8,0.7,1.1c0.3,0.3,0.7,0.4,1.2,0.4c0.7,0,1.3-0.4,1.8-1.1
		c0.5-0.7,0.9-1.6,1.3-2.8c0.4-1.2,0.7-2.6,0.9-4.2c0.3-1.6,0.5-3.2,0.7-5c0.1-0.7,0.3-1.1,0.5-1.3c0.2-0.2,0.5-0.3,0.7-0.3
		C152.6,66,153,66.6,153,67.6z M142.5,64.2c0-0.4,0.1-0.8,0.1-1.2c0-0.4,0-0.9,0-1.4c0-0.9-0.1-1.8-0.2-2.5c-0.2-0.7-0.5-1.1-1-1.1
		c-0.8,0-1.6,0.4-2.3,1.3c-0.7,0.8-1.4,1.9-2,3.2c-0.6,1.3-1.1,2.7-1.4,4.3c-0.4,1.6-0.5,3.2-0.5,4.7c0,0.2,0,0.3,0.1,0.5
		c0.1,0.1,0.4,0.2,0.8,0.2c0.8,0,1.6-0.2,2.3-0.7c0.7-0.4,1.4-1,1.9-1.8c0.6-0.7,1-1.6,1.4-2.6C142.2,66.2,142.4,65.2,142.5,64.2z"
		/>
	<path d="M171,72.8c0,1.2-0.2,2.5-0.6,3.9c-0.4,1.4-1.1,2.8-2,4c-0.9,1.2-2,2.3-3.4,3.1c-1.4,0.8-3,1.3-4.9,1.3
		c-1.8,0-3.4-0.3-4.6-1c-1.3-0.7-2.3-1.5-3.1-2.7c-0.8-1.1-1.4-2.4-1.8-4c-0.4-1.5-0.5-3.1-0.5-4.8c0-1.6,0.2-3.4,0.6-5.4
		c0.4-2,1-3.8,1.8-5.5c0.8-1.7,1.8-3.1,3-4.3c1.2-1.1,2.7-1.7,4.4-1.7c0.8,0,1.6,0.2,2.4,0.5c0.7,0.3,1.4,0.8,2,1.4s1,1.2,1.3,2
		c0.3,0.7,0.5,1.5,0.6,2.3l0.1,1c0,1.1-0.2,2.3-0.6,3.7c-0.4,1.3-0.9,2.6-1.6,3.7c-0.7,1.1-1.6,2.1-2.6,2.9c-1,0.8-2.2,1.2-3.5,1.2
		c-0.2,0-0.5,0-0.9-0.1c-0.4,0-0.7-0.1-1-0.2v2c0,0.3,0.1,0.8,0.3,1.4c0.2,0.6,0.5,1.2,0.9,1.8c0.4,0.6,1,1.1,1.6,1.5
		c0.7,0.4,1.5,0.7,2.5,0.7c1.4,0,2.5-0.3,3.3-0.8c0.9-0.5,1.6-1.2,2.1-2.1c0.6-0.8,1-1.8,1.3-2.8c0.3-1.1,0.5-2.1,0.7-3
		c0.1-0.7,0.3-1.1,0.4-1.3c0.1-0.2,0.4-0.4,0.7-0.4c0.7,0,1.1,0.4,1.1,1.2V72.8z M162.8,62c0-0.4-0.1-0.8-0.3-1.2
		c-0.2-0.4-0.6-0.6-1.2-0.6c-0.8,0-1.6,0.4-2.2,1.3c-0.6,0.9-1.1,1.9-1.5,3c-0.4,1.1-0.7,2.2-0.9,3.3c-0.2,1.1-0.3,1.7-0.3,2.1v0.2
		c0,0.4,0,0.8,0.1,1c0.1,0.3,0.3,0.4,0.7,0.4h0.4c0.9,0,1.7-0.4,2.4-1.1c0.7-0.7,1.2-1.5,1.6-2.5c0.4-1,0.7-2,0.9-3
		c0.2-1,0.3-1.9,0.3-2.5V62z"/>
	<path d="M236.1,81.3c0,1.4-0.5,2.3-1.4,2.8c-1,0.5-2.1,0.7-3.5,0.7c-1.4,0-2.5-0.5-3.4-1.4s-1.6-2.5-2.2-4.6
		c-0.5-2.1-0.9-4.9-1.2-8.3c-0.2-3.4-0.4-7.6-0.4-12.5c0-0.2-0.1-0.3-0.2-0.4c0,0-0.2,0.5-0.5,1.5c-0.3,1-0.6,2.2-0.9,3.6
		c-0.4,1.4-0.7,3.1-1.2,4.9c-0.4,1.8-0.8,3.5-1.1,5.2c-0.3,1.7-0.6,3.3-0.8,4.8c-0.2,1.5-0.4,2.7-0.4,3.5c0,0.4,0.1,0.7,0.2,0.8
		c0.2,0.2,0.2,0.3,0.2,0.4c0,0.2-0.1,0.4-0.4,0.6c-0.3,0.2-0.6,0.4-0.9,0.5c-0.4,0.1-0.7,0.2-1,0.3c-0.3,0.1-0.5,0.1-0.7,0.1
		c-0.4,0-0.9-0.1-1.4-0.2c-0.6-0.1-1.2-0.4-1.8-0.7c-0.6-0.3-1.1-0.7-1.7-1.2c-0.5-0.5-0.9-1-1.2-1.8c-0.2-0.5-0.3-1.3-0.5-2.5
		c-0.1-1.1-0.2-2.4-0.2-3.7c0-1.4-0.1-2.8-0.1-4.3c0-1.5,0-2.9,0-4.1c0-1.5,0-2.9-0.1-4.1c0-1.2-0.2-1.8-0.4-1.8
		c-0.1,0-0.2,0.2-0.4,0.7c-0.2,0.4-0.4,0.9-0.6,1.5c-0.2,0.6-0.4,1.1-0.6,1.6c-0.2,0.5-0.3,0.9-0.3,1.2c-1,3.8-1.6,7.2-2,10
		c-0.3,2.8-0.5,5.4-0.5,7.8c0,0.5,0,0.8,0,1c0,0.2,0.1,0.3,0.1,0.4c0,0.1,0.1,0.1,0.1,0.2c0,0,0.1,0.2,0.1,0.4
		c-0.4,0.2-1,0.4-1.8,0.5c-0.8,0.1-1.6,0.1-2.4,0.1c-0.1,0-0.4,0-0.9-0.1c-0.5-0.1-1-0.2-1.5-0.4c-0.5-0.2-1-0.4-1.5-0.7
		c-0.4-0.3-0.7-0.6-0.7-1c0-0.4,0-1.1,0-2.2c0-1.1,0-2.3,0.1-3.8c0-1.5,0-3.1,0.1-4.8c0-1.8,0-3.5,0.1-5.3c0-1.8,0-3.5,0.1-5.1
		c0-1.7,0-3.1,0-4.3c0-0.4,0-0.9,0-1.7c0-0.8-0.1-1.7-0.2-2.7c-0.1-1-0.2-2-0.5-3.1c-0.2-1.1-0.5-2-0.8-2.9
		c-0.4-0.9-0.8-1.6-1.3-2.1c-0.5-0.6-1.2-0.8-2-0.8c-1.5,0-2.9,0.6-4.1,1.8c-1.2,1.2-2.1,2.6-2.9,4.3c-0.7,1.7-1.3,3.5-1.7,5.4
		c-0.4,1.9-0.6,3.5-0.6,4.8c0,0.4,0,1.1,0.1,2c0.1,0.9,0.2,1.8,0.5,2.6c0.3,0.9,0.7,1.6,1.2,2.3c0.5,0.7,1.2,1,2.1,1
		c0.1,0,0.4,0,0.8-0.1c0.5,0,0.8-0.1,0.9-0.1c0.1,0,0.4,0,0.7,0.1c0.3,0,0.6,0.1,0.9,0.2c0.3,0.1,0.6,0.2,0.9,0.5
		c0.3,0.2,0.4,0.5,0.4,0.9c0,0.4-0.1,0.8-0.4,1c-0.3,0.3-0.6,0.5-1,0.6c-0.4,0.1-0.8,0.2-1.1,0.3c-0.3,0-0.6,0.1-0.7,0.1
		c-1.9,0-3.4-0.5-4.5-1.4c-1.1-0.9-2-2.1-2.6-3.4c-0.6-1.3-1-2.7-1.2-4.1c-0.2-1.4-0.3-2.6-0.3-3.7c0-1.7,0.2-3.7,0.7-6
		c0.5-2.2,1.3-4.4,2.5-6.3c1.1-2,2.6-3.7,4.4-5c1.8-1.4,4.1-2.1,6.7-2.1c0.8,0,1.5,0.2,2.2,0.6c0.7,0.4,1.3,0.9,1.9,1.5
		c0.6,0.6,1,1.3,1.4,2.1c0.4,0.7,0.7,1.4,0.9,2.1c0.5,1.4,0.9,3.2,1.2,5.4c0.3,2.1,0.4,4.3,0.6,6.6c0.1,2.3,0.2,4.6,0.2,7
		c0,2.3,0.1,4.5,0.1,6.4c0.2-1.2,0.5-2.3,0.7-3.3c0.3-1,0.5-2.1,0.8-3.1c0.3-1.1,0.6-2.2,0.9-3.4c0.3-1.2,0.6-2.6,1-4.1
		c0.4-1.7,0.8-3.5,1.3-5.4c0.5-1.9,1-3.6,1.5-5.2c0.1-0.4,0.4-0.7,1-0.8c0.6-0.1,1-0.1,1.2-0.1c0.4,0,0.9,0.1,1.4,0.4
		c0.6,0.3,1.1,0.6,1.7,0.9c0.5,0.4,1,0.8,1.4,1.3c0.4,0.5,0.6,1,0.6,1.4v12c0,0.9,0,2,0,3.3c0,1.3,0,2.6,0.1,3.7
		c0,1.2,0.1,2.2,0.1,3c0.1,0.8,0.2,1.3,0.2,1.3c0.3,0,0.6-0.8,1-2.5c0.4-1.7,0.9-3.7,1.4-6.2c0.5-2.5,1.1-5.1,1.7-8
		c0.6-2.9,1.3-5.5,2-8c0.7-2.5,1.4-4.5,2.2-6.2c0.8-1.7,1.6-2.5,2.4-2.5c0.5,0,1.1,0.3,1.7,0.9c0.6,0.6,1.2,1.3,1.7,2.1
		c0.5,0.8,0.9,1.5,1.3,2.3c0.3,0.8,0.5,1.3,0.5,1.6c0,0.2-0.1,0.7-0.4,1.4c-0.2,0.8-0.5,2-0.7,3.8c-0.3,1.8-0.5,4.2-0.7,7.2
		c-0.2,3-0.4,6.8-0.4,11.4c0,0.9,0.1,2.1,0.2,3.4c0.2,1.3,0.4,2.6,0.7,3.7c0.3,1.2,0.8,2.2,1.3,3c0.5,0.8,1.2,1.3,1.9,1.3
		c0.4,0,0.7-0.1,1-0.2c0.3-0.2,0.6-0.5,0.8-1C236,80.9,236.1,81.1,236.1,81.3z"/>
	<path d="M257,72.8c0,1.2-0.2,2.5-0.6,3.9c-0.4,1.4-1.1,2.8-2,4c-0.9,1.2-2,2.3-3.4,3.1c-1.4,0.8-3,1.3-4.9,1.3
		c-1.8,0-3.4-0.3-4.6-1s-2.3-1.5-3.1-2.7c-0.8-1.1-1.4-2.4-1.8-4c-0.4-1.5-0.5-3.1-0.5-4.8c0-1.6,0.2-3.4,0.6-5.4
		c0.4-2,1-3.8,1.8-5.5c0.8-1.7,1.8-3.1,3-4.3c1.2-1.1,2.7-1.7,4.4-1.7c0.8,0,1.6,0.2,2.4,0.5c0.7,0.3,1.4,0.8,2,1.4
		c0.6,0.6,1,1.2,1.3,2c0.3,0.7,0.5,1.5,0.6,2.3l0.1,1c0,1.1-0.2,2.3-0.6,3.7c-0.4,1.3-0.9,2.6-1.6,3.7c-0.7,1.1-1.6,2.1-2.6,2.9
		s-2.2,1.2-3.5,1.2c-0.2,0-0.5,0-0.9-0.1c-0.3,0-0.7-0.1-1-0.2v2c0,0.3,0.1,0.8,0.3,1.4c0.2,0.6,0.5,1.2,0.9,1.8
		c0.4,0.6,1,1.1,1.6,1.5c0.7,0.4,1.5,0.7,2.5,0.7c1.4,0,2.5-0.3,3.3-0.8c0.9-0.5,1.6-1.2,2.1-2.1c0.6-0.8,1-1.8,1.3-2.8
		c0.3-1.1,0.5-2.1,0.7-3c0.1-0.7,0.3-1.1,0.4-1.3c0.1-0.2,0.4-0.4,0.7-0.4c0.7,0,1,0.4,1,1.2V72.8z M248.7,62c0-0.4-0.1-0.8-0.3-1.2
		c-0.2-0.4-0.6-0.6-1.2-0.6c-0.8,0-1.6,0.4-2.2,1.3c-0.6,0.9-1.1,1.9-1.5,3c-0.4,1.1-0.7,2.2-0.9,3.3c-0.2,1.1-0.3,1.7-0.3,2.1v0.2
		c0,0.4,0,0.8,0.1,1c0.1,0.3,0.3,0.4,0.7,0.4h0.3c0.9,0,1.7-0.4,2.4-1.1c0.7-0.7,1.2-1.5,1.6-2.5c0.4-1,0.7-2,0.9-3
		c0.2-1,0.3-1.9,0.3-2.5V62z"/>
	<path d="M303.2,68.7c0,0.1,0.1,0.2,0.1,0.3c0,0.1,0,0.2,0,0.2c0,0.4-0.4,0.7-1.2,1c-0.8,0.2-1.7,0.4-2.7,0.6c-1,0.1-2,0.2-3,0.3
		c-1,0.1-1.7,0.2-2.1,0.2c-0.3,2.8-0.7,5-1,6.9c-0.3,1.8-1,3.3-1.9,4.3c-0.9,1.1-2.3,1.8-4,2.3c-1.8,0.4-4.2,0.7-7.4,0.7
		c-1.2,0-2.4-0.2-3.7-0.6c-1.3-0.4-2.5-1-3.5-1.9c-1.1-0.8-2-1.8-2.7-3c-0.7-1.2-1.1-2.6-1.1-4.2c0-0.7,0.2-1.3,0.5-1.7
		c0.3-0.4,0.7-0.6,1.2-0.6c1.3,0,2.2,0.5,2.7,1.5c0.5,1,0.9,2,1,2.9c0.1,0.7,0.3,1.3,0.6,2c0.3,0.7,0.7,1.2,1.3,1.8
		c0.5,0.5,1.2,0.9,2,1.2c0.8,0.3,1.8,0.5,2.9,0.5c1.2,0,2.2-0.4,3-1.3c0.8-0.9,1.5-1.9,2-3.1c0.5-1.2,0.8-2.4,1-3.6
		c0.2-1.2,0.3-2.2,0.3-3c0-0.2,0-0.5,0-0.7c0-0.2,0-0.5-0.1-0.7c0-0.1-0.4-0.2-1-0.4c-0.7-0.1-1.5-0.3-2.3-0.4
		c-0.8-0.1-1.6-0.2-2.3-0.3c-0.7-0.1-1.1-0.1-1.2-0.1c-0.8,0-1.3,0.2-1.5,0.4c-0.2,0.2-0.5,0.3-0.7,0.3c-0.3,0-0.5-0.2-0.5-0.6
		c0-1.3,0.5-2.1,1.6-2.6c1-0.5,2.3-0.7,3.7-0.7h5.1c0.1,0,0.2-0.4,0.2-1.1c0-0.7,0.1-1.7,0.1-2.8c0-1.1,0.1-2.4,0.2-3.8
		c0.1-1.4,0.3-2.8,0.5-4.2c0.2-1.4,0.6-2.7,1-4c0.4-1.2,1-2.2,1.7-3c-1-0.2-2.2-0.4-3.8-0.6c-1.5-0.2-3.2-0.4-5-0.6
		c-1.8-0.2-3.6-0.3-5.5-0.5c-1.9-0.1-3.6-0.2-5.2-0.2c-0.3,0-0.7,0-1.2,0.1c-0.5,0-1,0.2-1.4,0.4c-0.4,0.2-0.8,0.5-1.2,0.9
		c-0.3,0.4-0.5,1-0.5,1.7c0,0.9,0.4,1.7,1.2,2.4c0.8,0.7,1.7,1.5,2.6,2.3c1,0.8,1.8,1.7,2.6,2.6c0.8,1,1.2,2.1,1.2,3.5
		c0,0.5-0.1,1-0.4,1.5c-0.3,0.5-0.7,0.8-1.4,0.8c-0.7,0-1.6-0.5-2.6-1.4c-1-0.9-1.9-2.1-2.7-3.4c-0.9-1.4-1.6-2.8-2.2-4.3
		c-0.6-1.5-0.9-2.8-0.9-4c0-1.4,0.3-2.6,0.8-3.5c0.6-0.9,1.8-1.6,3.7-2.2c1.9-0.5,4.8-0.9,8.5-1.1c3.8-0.2,8.8-0.3,15.2-0.3
		c1.4,0,2.5-0.1,3.2-0.2c0.7-0.1,1.2-0.2,1.4-0.2c0.2,0,0.6,0.4,1.1,1.1c0.5,0.7,1.1,1.9,1.9,3.5c0,0.2-0.3,0.4-0.8,0.5
		c-0.6,0.1-1.2,0.4-1.8,0.9c-1,0.7-1.8,1.8-2.5,3.2c-0.6,1.4-1.1,3.1-1.4,4.9c-0.3,1.8-0.5,3.7-0.6,5.6c-0.1,1.9-0.1,3.7-0.1,5.4
		c0,0.1,0.4,0.2,1.3,0.2c0.8,0,1.8,0.1,2.8,0.2c1,0.1,2.1,0.3,3,0.6C302.3,67.7,302.9,68.1,303.2,68.7z"/>
	<path d="M329.4,76c-0.1,0.7-0.3,1.4-0.7,2.3c-0.4,0.9-0.9,1.7-1.4,2.6c-0.6,0.8-1.3,1.5-2,2.1c-0.8,0.6-1.6,0.8-2.6,0.8
		c-1.4,0-2.6-0.5-3.7-1.6c-1.1-1.1-1.7-2.6-1.9-4.5c-0.3,0.7-0.6,1.6-1,2.6c-0.4,1-0.8,1.9-1.4,2.7c-0.6,0.8-1.2,1.6-1.9,2.1
		c-0.7,0.6-1.6,0.9-2.6,0.9c-0.3,0-0.5,0-0.6-0.1c-0.1,0-0.3-0.1-0.5-0.2c-0.2-0.1-0.4-0.1-0.6-0.2c-0.2,0-0.5-0.1-0.9-0.1
		c-1.1,0-2.1-0.4-2.8-1.1c-0.8-0.7-1.4-1.6-1.9-2.8c-0.5-1.1-0.8-2.3-1-3.7s-0.3-2.6-0.3-3.7c0-2.8,0.2-5.5,0.5-8
		c0.3-2.5,0.8-4.7,1.5-6.7c0.7-1.9,1.6-3.5,2.7-4.6c1.1-1.1,2.5-1.7,4.1-1.7c0.9,0,1.6,0.1,2.1,0.2c0.5,0.2,0.9,0.4,1.4,0.6
		s0.9,0.4,1.4,0.7c0.5,0.2,1.2,0.4,2.1,0.6c1,0.6,1.7,1.2,2.1,2c0.4,0.8,0.7,1.6,0.8,2.5c0.1,0.9,0.2,1.8,0.1,2.8c0,1,0,1.9,0.1,2.8
		c0,0,0.1,0.1,0.3,0.2c0.2,0.1,0.5,0.2,0.7,0.3c0.3,0.1,0.5,0.3,0.7,0.5s0.3,0.5,0.3,0.8v0.3c-0.5,1.2-0.7,2.3-0.8,3.2
		c-0.1,0.9-0.1,2.1-0.1,3.4c0,0.7,0,1.4,0.1,2.1c0.1,0.8,0.2,1.5,0.4,2.2c0.2,0.7,0.4,1.2,0.7,1.7c0.3,0.4,0.7,0.7,1.3,0.7
		c0.6,0,1.1-0.3,1.5-0.8c0.4-0.6,0.8-1.2,1.1-1.9c0.3-0.7,0.6-1.5,0.8-2.2c0.2-0.7,0.3-1.3,0.4-1.7c0.1-0.6,0.3-0.8,0.7-0.8
		c0.2,0,0.5,0.1,0.7,0.4c0.2,0.3,0.3,0.7,0.3,1.4c0,0.2,0,0.4,0,0.5C329.4,75.5,329.4,75.7,329.4,76z M316.4,64.6
		c0-0.5,0-1.1-0.1-1.8c-0.1-0.7-0.3-1.4-0.5-2c-0.2-0.6-0.6-1.1-1-1.5c-0.5-0.4-1.1-0.6-1.9-0.6c-1.3,0-2.4,0.6-3.2,1.8
		c-0.8,1.2-1.5,2.6-1.9,4.2c-0.5,1.6-0.8,3.3-0.9,5c-0.1,1.7-0.2,3-0.2,4c0,0.7,0,1.6,0.1,2.7c0.1,1.1,0.2,2,0.4,3
		c0.2,0.9,0.5,1.7,0.8,2.4c0.4,0.7,0.8,1,1.4,1c1.4,0,2.4-0.5,3.1-1.6c0.7-1.1,1.3-2.4,1.6-3.9c0.4-1.6,0.6-3.2,0.8-5
		c0.2-1.8,0.3-3.4,0.5-4.9c0.1-0.8,0.3-1.3,0.6-1.5c0.3-0.2,0.5-0.4,0.5-0.5V64.6z"/>
	<path d="M350.8,66.4c-0.7,1.3-1.3,2.6-1.8,4c-0.6,1.4-1,2.5-1.3,3.3c0,0.2-0.2,0.7-0.4,1.5c-0.2,0.7-0.4,1.6-0.7,2.5
		c-0.3,0.9-0.5,1.8-0.7,2.7c-0.2,0.9-0.3,1.6-0.3,2.2c0,0.2-0.2,0.4-0.6,0.6c-0.4,0.2-1,0.3-1.6,0.3c-1,0-1.8-0.1-2.5-0.4
		c-0.6-0.3-1.1-0.7-1.4-1.4s-0.5-1.5-0.6-2.5c-0.1-1-0.1-2.3-0.1-3.7v-5.2c0-0.4,0-0.7,0-1.1c0-0.4-0.1-0.6-0.2-0.7
		c-0.2,0.1-0.5,0.7-0.9,1.8c-0.4,1.1-0.7,2.5-1,4.1c-0.3,1.6-0.6,3.3-0.8,5.1c-0.2,1.8-0.4,3.4-0.4,4.8c0,0.5-0.3,0.8-0.8,0.9
		c-0.5,0.1-1.1,0.1-1.8,0.1c-0.2,0-0.5,0-0.9-0.1c-0.4-0.1-0.9-0.2-1.3-0.2c-0.4-0.1-0.9-0.2-1.2-0.4c-0.4-0.2-0.6-0.4-0.7-0.6
		c-0.2-0.6-0.4-1.6-0.5-3c-0.1-1.4-0.2-3.6-0.2-6.5c0-1.7,0-3.7,0.1-6c0.1-2.3,0.2-5,0.2-8c0-0.4,0-1-0.1-1.6c0-0.7-0.1-1.1-0.1-1.2
		c0-0.4,0.2-0.6,0.5-0.7c0.3-0.1,0.5-0.1,0.7-0.1c0.3,0,0.7,0,1.2,0.1c0.4,0.1,0.9,0.2,1.3,0.2c0.4,0.1,0.9,0.2,1.2,0.3
		c0.4,0.1,0.6,0.2,0.8,0.3v16.9c0.2-0.9,0.5-2,0.8-3.3c0.3-1.2,0.7-2.5,1.1-3.7c0.4-1.2,0.8-2.3,1.3-3.4c0.5-1,1-1.8,1.5-2.2
		c0.2-0.1,0.5-0.2,1-0.3c0.5-0.1,0.9-0.1,1.3-0.1c0.2,0,0.5,0,0.9,0.1c0.4,0.1,0.7,0.2,1,0.3c0.3,0.1,0.6,0.3,0.9,0.5
		c0.3,0.2,0.4,0.5,0.5,0.7v11.3v0.6c0,0.3,0,0.4,0.1,0.4c0.1,0,0.4-0.6,0.8-1.9c0.4-1.3,1-2.8,1.6-4.5c0.6-1.7,1.3-3.5,1.9-5.3
		c0.7-1.8,1.3-3.3,1.9-4.3c0.1-0.2,0.4-0.3,0.9-0.3c0.5,0,1,0,1.4,0c0.3,0,0.8,0.1,1.3,0.3s1.1,0.5,1.6,0.9c0.5,0.4,1,0.8,1.4,1.3
		c0.4,0.5,0.6,1,0.6,1.5c0,0.1-0.1,0.4-0.4,0.8c-0.3,0.4-0.5,0.9-0.6,1.4c-0.3,1.3-0.5,2.6-0.7,3.9c-0.1,1.3-0.2,2.9-0.2,4.8
		c0,0.8,0,1.7,0.1,2.5c0.1,0.8,0.2,1.6,0.4,2.3c0.2,0.7,0.4,1.2,0.7,1.6c0.3,0.4,0.7,0.6,1.1,0.6c0.7,0,1.2-0.2,1.8-0.7
		c0.5-0.4,1-1,1.3-1.8c0.4-0.7,0.7-1.6,1-2.6c0.3-1,0.5-2,0.7-3.1c0.2-1.1,0.7-1.7,1.3-1.7c0.4,0,0.6,0.1,0.7,0.3
		c0.1,0.2,0.2,0.6,0.2,1.3c0,0.4,0,0.6-0.1,0.8c0,0.6-0.2,1.6-0.6,2.8c-0.4,1.3-0.8,2.6-1.5,3.9c-0.6,1.3-1.4,2.4-2.3,3.4
		c-0.9,1-2,1.4-3.2,1.4c-1.4,0-2.6-0.3-3.5-1c-0.9-0.7-1.6-1.6-2.1-2.7c-0.5-1.1-0.9-2.5-1.1-4c-0.2-1.5-0.3-3.1-0.3-4.7v-0.5
		L350.8,66.4z"/>
	<path d="M386.8,63.6c0.2-0.3,0.5-0.5,1-0.5c0.2,0,0.4,0.1,0.5,0.4c0.1,0.3,0.1,0.5,0.1,0.7c0,1.4-0.4,2.7-0.9,3.9
		c-0.6,1.1-1.2,2.1-1.9,3c-0.4,0.5-0.8,1-1.2,1.4c-0.4,0.4-0.9,0.8-1.4,1.2c0,0.8-0.1,1.3-0.1,1.6c0,0.3-0.1,0.5-0.1,0.7
		c-0.1,0.7-0.3,1.6-0.7,2.7c-0.4,1.1-0.9,2.1-1.6,3.1c-0.7,1-1.5,1.9-2.5,2.6c-1,0.7-2.1,1.1-3.3,1.1c-0.4,0-0.9,0-1.4-0.1
		c-0.5-0.1-1.1-0.2-1.6-0.4c-0.6-0.2-1.1-0.3-1.6-0.6c-0.5-0.2-1-0.4-1.3-0.7c-1.2-0.7-2.1-1.4-2.9-2.3c-0.7-0.9-1.3-1.8-1.7-2.8
		c-0.4-1-0.7-2-0.8-3.1c-0.1-1-0.2-2.1-0.2-3c0-1.7,0.2-3.4,0.5-5.1c0.3-1.7,0.8-3.4,1.3-5c0.5-1.6,1.1-3,1.8-4.3
		c0.7-1.3,1.3-2.2,1.9-2.9c0.6-0.7,1.3-1.1,2-1.4c0.7-0.3,1.4-0.4,2-0.4c0.7,0,1.5,0.2,2.2,0.6c0.7,0.4,1.5,0.8,2.2,1.4
		c0.7,0.6,1.4,1.2,2.1,1.9c0.7,0.7,1.3,1.4,1.9,2.1c0.5,0.5,0.8,1.3,1,2.5c0.2,1.1,0.4,2.3,0.6,3.5c0.1,0.7,0.2,1.4,0.2,2.1
		c0,0.7,0.1,1.5,0.1,2.3c0.7-0.6,1.3-1.2,1.7-1.8c0.4-0.6,0.8-1.2,1-1.8c0.3-0.6,0.5-1.1,0.6-1.6C386.4,64.3,386.6,63.9,386.8,63.6z
		 M378.5,75.3c-0.6,0.4-1.3,0.7-2.3,0.8c-1,0.2-1.8,0.3-2.5,0.3c-1.3,0-2.2-0.1-2.9-0.3c-0.7-0.2-1.4-0.6-2.2-1.1l-0.1,1.5
		c0,0.5,0.1,1,0.2,1.6c0.1,0.6,0.4,1.1,0.7,1.5c0.3,0.5,0.7,0.9,1.3,1.2c0.6,0.3,1.3,0.5,2.1,0.5c1,0,1.9-0.2,2.6-0.6
		c0.7-0.4,1.3-0.9,1.8-1.5c0.4-0.6,0.8-1.3,1-2C378.4,76.5,378.5,75.9,378.5,75.3z M378.8,68.3c0-0.7-0.1-1.4-0.1-2.3
		c-0.1-0.9-0.2-1.8-0.3-2.8c-0.2-1-0.4-1.8-0.7-2.6c-0.3-0.8-0.7-1.5-1.2-2c-0.5-0.5-1-0.8-1.8-0.8s-1.4,0.3-2,0.8s-1.2,1.3-1.8,2.2
		c-0.5,0.9-0.9,1.9-1.2,3c-0.3,1.1-0.5,2.2-0.5,3.3c0,1.9,0.4,3.2,1.1,4.1c0.7,0.9,2,1.3,3.8,1.3c1.4,0,2.5-0.2,3.3-0.6
		c0.9-0.4,1.3-0.7,1.3-1v-1.3C378.9,69.4,378.8,69,378.8,68.3z"/>
	<path d="M403.3,80.4c-0.9-0.9-1.7-2.4-2.3-4.3c-0.1,0.3-0.3,0.9-0.5,1.8c-0.2,0.9-0.5,1.9-0.9,2.9c-0.4,1-1,1.9-1.6,2.7
		c-0.7,0.8-1.5,1.2-2.6,1.2c-3,0-5-0.9-6.2-2.6s-1.8-4.3-2-7.6V57.7c0.1-0.3,0.2-0.6,0.2-0.7c0-0.1,0.2-0.2,0.6-0.2
		c0.2,0,0.6,0,1.2,0.1c0.6,0.1,1.2,0.2,1.8,0.4c0.6,0.2,1.2,0.4,1.6,0.7c0.5,0.3,0.7,0.6,0.7,1v12.4c0,0.8,0,1.8,0,2.8
		c0,1,0.1,2,0.2,2.8c0.1,0.9,0.3,1.6,0.6,2.2c0.3,0.6,0.7,0.9,1.2,0.9c1.4,0,2.4-1.4,3.2-4.1c0.7-2.7,1.2-7,1.3-12.9
		c0-0.4-0.1-0.7-0.3-1.1c-0.2-0.4-0.3-0.8-0.3-1.3c0.1-0.4,0.5-0.6,1.2-0.7c0.7-0.1,1.3-0.1,1.9-0.1c1.4,0,2.4,0.1,3.1,0.4
		c0.7,0.3,1,1.1,1,2.5c-0.1,0.8-0.2,1.5-0.2,2c-0.1,0.5-0.1,0.9-0.1,1.3c0,0.4,0,0.8-0.1,1.3c0,0.4,0,1.1,0,1.9c0,1.1,0,2.2,0.1,3.4
		c0.1,1.2,0.3,2.2,0.5,3.2c0.2,1,0.5,1.8,0.9,2.4c0.3,0.6,0.8,0.9,1.4,0.9c0.5,0,0.9-0.2,1.2-0.5c0.3-0.3,0.5-0.6,0.8-1
		c0.2-0.4,0.5-0.7,0.7-1c0.2-0.3,0.6-0.5,1-0.5c0.4,0,0.7,0.1,0.8,0.4c0.2,0.3,0.3,0.5,0.3,0.7c0,0.9-0.2,1.6-0.7,2.2
		c-0.4,0.6-1,1.1-1.6,1.5c-0.6,0.4-1.3,0.6-1.9,0.8c-0.7,0.2-1.2,0.2-1.6,0.2c-0.8,0-1.5-0.1-2-0.3c-0.6-0.2-1.1-0.5-1.7-0.8
		L403.3,80.4z"/>
	<path d="M428.4,79.3c0,1.1-0.4,2-1.1,2.6c-0.7,0.6-1.6,1-2.6,1.3c-1,0.3-1.9,0.5-2.9,0.5c-1,0.1-1.6,0.1-2.1,0.1
		c-0.7,0-1.5-0.1-2.4-0.2c-1-0.1-1.9-0.4-2.8-0.7c-0.9-0.3-1.7-0.7-2.3-1.3c-0.6-0.6-0.9-1.3-0.9-2.1c0-0.5,0.2-0.9,0.6-1.1
		s0.8-0.3,1.2-0.3c0.5,0,1,0.2,1.5,0.6c0.5,0.4,1,0.8,1.5,1.2c0.5,0.4,1.1,0.8,1.8,1.2c0.7,0.4,1.4,0.6,2.2,0.6
		c0.4,0,0.9-0.1,1.5-0.4c0.6-0.3,0.9-0.7,0.9-1.4c0-0.7-0.3-1.3-0.8-1.9c-0.5-0.6-1.2-1.2-2-1.9c-0.8-0.7-1.7-1.3-2.6-2
		s-1.8-1.5-2.6-2.3c-0.8-0.8-1.5-1.7-2-2.7c-0.5-1-0.8-2.1-0.8-3.2c0-1.6,0.5-3,1.6-4.1c1-1.1,2.3-2,3.7-2.7
		c1.4-0.7,2.9-1.1,4.4-1.4c1.5-0.3,2.7-0.4,3.5-0.4c0.8,0,1.6,0.2,2.4,0.5c0.8,0.3,1.2,1,1.2,1.9c0,0.3-0.1,0.7-0.2,1.2
		c-0.1,0.5-0.3,1.1-0.6,1.6c-0.3,0.5-0.6,1-1,1.4c-0.4,0.4-1,0.6-1.6,0.6c-0.2,0-0.4-0.1-0.6-0.2c-0.2-0.2-0.4-0.4-0.6-0.6
		c-0.2-0.2-0.5-0.4-0.7-0.6c-0.3-0.2-0.5-0.2-0.9-0.2c-1.6,0-2.8,0.5-3.4,1.4c-0.7,1-1,2-1,3c0,0.9,0.5,1.9,1.6,2.9
		c1.1,1,2.3,2.1,3.6,3.1c1.3,1,2.5,2,3.6,3C427.9,77.4,428.4,78.3,428.4,79.3z"/>
	<path d="M446.3,81.2c-0.3,0.7-1,1.4-2.2,2c-1.2,0.6-2.7,0.9-4.5,0.9c-0.6,0-1.2-0.1-1.9-0.3c-0.6-0.2-1.2-0.4-1.6-0.7
		c-0.5-0.3-0.9-0.6-1.2-0.9c-0.3-0.3-0.5-0.6-0.5-0.9c0,0,0.1-0.1,0.2-0.2c0.2-0.1,0.2-0.2,0.2-0.3c0-0.2-0.1-0.4-0.4-0.4
		c0.7-1.1,1.7-1.9,2.9-2.4c1.2-0.5,2.2-0.8,3-0.8c0.3,0,0.7,0.1,1.2,0.2c0.5,0.1,0.9,0.3,1.4,0.5c0.5,0.2,1,0.4,1.4,0.7
		c0.4,0.3,0.8,0.5,1,0.7c0.1,0.1,0.2,0.3,0.2,0.5c0,0.2,0,0.3,0,0.5c0,0.2,0,0.3,0.1,0.5C445.9,80.9,446,81.1,446.3,81.2z
		 M444.4,41.7c0,0.7-0.1,1.5-0.3,2.3c-0.2,0.8-0.5,1.8-0.7,3c-0.3,1.2-0.5,2.7-0.7,4.5s-0.3,4.1-0.3,6.9c0,0.2,0,0.6,0,1.2
		c0,0.6,0,1.3,0,2c0,0.7,0,1.4,0,2c0,0.6,0,1.1,0,1.3l0.6,8.5c0,0.6-0.1,1-0.3,1.2c-0.2,0.2-0.5,0.2-0.8,0.2c-0.2,0-0.6-0.1-1.2-0.2
		c-0.6-0.1-1.2-0.3-1.9-0.6c-0.7-0.3-1.2-0.6-1.8-0.9c-0.5-0.4-0.8-0.8-0.8-1.3c0-2.7,0-5,0.1-7.1c0-2.1,0.1-4,0.1-5.7
		c0-2.1,0-3.9,0-5.4c0-1.5-0.1-2.8-0.1-3.9c0-1.1-0.1-2.1-0.2-2.9c-0.1-0.8-0.2-1.6-0.3-2.3c-0.1-0.6-0.2-1.3-0.5-2
		c-0.2-0.7-0.3-1.4-0.3-1.9c0-0.7,0.1-1.2,0.4-1.6c0.2-0.4,0.5-0.6,0.9-0.7c0.1,0.1,0.3,0.2,0.6,0.4c0.2,0.1,0.7,0.3,1.5,0.4
		c2.1,0.2,3.6,0.4,4.6,0.6C443.9,40,444.4,40.7,444.4,41.7z"/>
</g>
</svg>
